<svg width="638" height="315" viewBox="0 0 638 315" fill="none" xmlns="http://www.w3.org/2000/svg">
<g clip-path="url(#clip0_3428_8539)">
<path d="M318.561 221.755C300.861 221.755 284.977 211.247 278.204 194.978L196.547 0H244.34L318.84 178.361L393.271 0H441.064L358.918 195.048C352.11 211.247 336.261 221.755 318.561 221.755Z" fill="#5018C5"/>
<path d="M425.111 314.934C407.481 314.934 391.667 304.495 384.824 288.367C377.947 272.098 381.507 253.525 393.936 240.922L542.657 90.2812L561.229 134.095L425.076 271.749L619.147 270.667L637.72 314.48L425.146 315.004L425.076 314.934H425.111Z" fill="#5018C5"/>
<path d="M0 314.405L18.5727 270.592L212.643 271.674L76.525 133.985L95.0977 90.1719L243.819 240.813C256.247 253.381 259.843 272.023 252.93 288.257C246.088 304.421 230.203 314.824 212.643 314.824L0.0698221 314.336L0 314.405Z" fill="#5018C5"/>
</g>
<defs>
<clipPath id="clip0_3428_8539">
<rect width="638" height="315" fill="white"/>
</clipPath>
</defs>
</svg>
