<svg width="200" height="200" viewBox="0 0 200 200" fill="none" xmlns="http://www.w3.org/2000/svg">
<g clip-path="url(#clip0_2214_7089)">
<path d="M69.6721 6.57877C49.689 13.5111 32.4556 26.6689 20.5032 44.1194C8.55082 61.57 2.50946 82.3935 3.26651 103.531C4.02355 124.669 11.5391 145.007 24.7092 161.558C37.8794 178.109 56.0099 190 76.4377 195.485C92.999 199.758 110.35 199.946 127 196.032C142.083 192.644 156.028 185.397 167.469 175.001C179.376 163.85 188.02 149.664 192.469 133.969C197.304 116.901 198.164 98.9528 194.985 81.5006H101.985V120.079H155.844C154.768 126.232 152.461 132.104 149.062 137.345C145.663 142.586 141.242 147.087 136.063 150.579C129.487 154.931 122.073 157.858 114.297 159.173C106.499 160.623 98.5011 160.623 90.7033 159.173C82.7995 157.54 75.3227 154.278 68.7502 149.594C58.19 142.119 50.2608 131.499 46.094 119.251C41.8579 106.772 41.8579 93.2447 46.094 80.7663C49.06 72.0196 53.9632 64.0559 60.4377 57.4694C67.847 49.7936 77.2273 44.3068 87.5495 41.6112C97.8718 38.9156 108.737 39.1152 118.953 42.1881C126.935 44.6369 134.233 48.9175 140.266 54.6881C146.339 48.6465 152.401 42.5892 158.453 36.5163C161.578 33.2506 164.985 30.1413 168.063 26.7975C158.852 18.2275 148.042 11.5585 136.25 7.17252C114.777 -0.624517 91.2811 -0.834055 69.6721 6.57877Z" fill="white"/>
<path d="M69.6719 6.57855C91.2791 -0.839312 114.775 -0.63529 136.25 7.15667C148.044 11.5725 158.849 18.2735 168.047 26.8754C164.922 30.2192 161.625 33.3442 158.437 36.5942C152.375 42.6463 146.318 48.6775 140.266 54.6879C134.233 48.9173 126.934 44.6367 118.953 42.1879C108.74 39.1042 97.8753 38.893 87.5503 41.5776C77.2253 44.2623 67.8392 49.7389 60.4219 57.4067C53.9474 63.9932 49.0442 71.9569 46.0781 80.7036L13.6875 55.6254C25.2814 32.6342 45.3555 15.0477 69.6719 6.57855Z" fill="#E33629"/>
<path d="M5.09371 80.4688C6.83339 71.8402 9.7238 63.4843 13.6875 55.625L46.0781 80.7656C41.842 93.244 41.842 106.772 46.0781 119.25C35.2864 127.583 24.4895 135.958 13.6875 144.375C3.76793 124.63 0.742653 102.133 5.09371 80.4688Z" fill="#F8BD00"/>
<path d="M101.984 81.4844H194.984C198.164 98.9366 197.303 116.885 192.469 133.953C188.019 149.648 179.376 163.834 167.469 174.984C157.016 166.828 146.516 158.734 136.063 150.578C141.245 147.082 145.668 142.576 149.067 137.33C152.467 132.084 154.771 126.205 155.844 120.047H101.984C101.969 107.203 101.984 94.3437 101.984 81.4844Z" fill="#587DBD"/>
<path d="M13.6719 144.375C24.474 136.042 35.2708 127.667 46.0625 119.25C50.2376 131.503 58.1782 142.123 68.75 149.594C75.343 154.256 82.8359 157.491 90.75 159.094C98.5477 160.544 106.546 160.544 114.344 159.094C122.119 157.779 129.533 154.852 136.109 150.5C146.563 158.656 157.062 166.75 167.516 174.906C156.076 185.308 142.132 192.561 127.047 195.953C110.397 199.867 93.0457 199.68 76.4844 195.406C63.386 191.909 51.1512 185.744 40.5469 177.297C29.3239 168.385 20.1568 157.155 13.6719 144.375Z" fill="#319F43"/>
</g>
<defs>
<clipPath id="clip0_2214_7089">
<rect width="200" height="200" fill="white"/>
</clipPath>
</defs>
</svg>
