<svg width="200" height="200" viewBox="0 0 200 200" fill="none" xmlns="http://www.w3.org/2000/svg">
<g clip-path="url(#clip0_2214_7050)">
<path d="M185.662 81.8572C190.2 68.2384 188.637 53.3197 181.381 40.9322C170.469 21.9322 148.531 12.1572 127.106 16.7572C117.575 6.01968 103.881 -0.0865724 89.5249 0.000927645C67.6249 -0.0490724 48.1937 14.0509 41.4562 34.8884C27.3874 37.7697 15.2437 46.5759 8.13743 59.0572C-2.85632 78.0072 -0.350069 101.895 14.3374 118.145C9.79993 131.763 11.3624 146.682 18.6187 159.07C29.5312 178.07 51.4687 187.845 72.8937 183.245C82.4187 193.982 96.1187 200.088 110.475 199.995C132.387 200.051 151.825 185.938 158.562 165.082C172.631 162.201 184.775 153.395 191.881 140.913C202.862 121.963 200.35 98.0947 185.669 81.8447L185.662 81.8572ZM110.487 186.926C101.719 186.938 93.2249 183.87 86.4937 178.251C86.7999 178.088 87.3312 177.795 87.6749 177.582L127.5 154.582C129.537 153.426 130.787 151.257 130.775 148.913V92.7697L147.606 102.488C147.787 102.576 147.906 102.751 147.931 102.951V149.445C147.906 170.12 131.162 186.882 110.487 186.926ZM29.9624 152.532C25.5687 144.945 23.9874 136.051 25.4937 127.42C25.7874 127.595 26.3062 127.913 26.6749 128.126L66.4999 151.126C68.5187 152.307 71.0187 152.307 73.0437 151.126L121.662 123.051V142.488C121.675 142.688 121.581 142.882 121.425 143.007L81.1687 166.251C63.2374 176.576 40.3374 170.438 29.9687 152.532H29.9624ZM19.4812 65.6009C23.8562 58.0009 30.7624 52.1884 38.9874 49.1697C38.9874 49.5134 38.9687 50.1197 38.9687 50.5447V96.5509C38.9562 98.8884 40.2062 101.057 42.2374 102.213L90.8562 130.282L74.0249 140.001C73.8562 140.113 73.6437 140.132 73.4562 140.051L33.1937 116.788C15.2999 106.426 9.16243 83.5322 19.4749 65.6072L19.4812 65.6009ZM157.769 97.7822L109.15 69.7072L125.981 59.9947C126.15 59.8822 126.362 59.8634 126.55 59.9447L166.812 83.1884C184.737 93.5447 190.881 116.476 180.525 134.401C176.144 141.988 169.244 147.801 161.025 150.826V103.445C161.044 101.107 159.8 98.9447 157.775 97.7822H157.769ZM174.519 72.5697C174.225 72.3884 173.706 72.0759 173.337 71.8634L133.512 48.8634C131.494 47.6822 128.994 47.6822 126.969 48.8634L78.3499 76.9384V57.5009C78.3374 57.3009 78.4312 57.1072 78.5874 56.9822L118.844 33.7572C136.775 23.4134 159.7 29.5697 170.037 47.5072C174.406 55.0822 175.987 63.9509 174.506 72.5697H174.519ZM69.1999 107.213L52.3624 97.4947C52.1812 97.4072 52.0624 97.2322 52.0374 97.0322V50.5384C52.0499 29.8384 68.8437 13.0634 89.5437 13.0759C98.2999 13.0759 106.775 16.1509 113.506 21.7509C113.2 21.9134 112.675 22.2072 112.325 22.4197L72.4999 45.4197C70.4624 46.5759 69.2124 48.7384 69.2249 51.0822L69.1999 107.201V107.213ZM78.3437 87.5009L99.9999 74.9947L121.656 87.4947V112.501L99.9999 125.001L78.3437 112.501V87.5009Z" fill="black"/>
</g>
<defs>
<clipPath id="clip0_2214_7050">
<rect width="200" height="200" fill="white"/>
</clipPath>
</defs>
</svg>
